<svg xmlns="http://www.w3.org/2000/svg" width="112.5" viewBox="0 0 112.5 112.5" height="112.5" version="1.0"><defs><clipPath id="a"><path d="M 5 19 L 108 19 L 108 93.964844 L 5 93.964844 Z M 5 19"/></clipPath><clipPath id="b"><path d="M 16 35 L 57 35 L 57 93.964844 L 16 93.964844 Z M 16 35"/></clipPath><clipPath id="c"><path d="M 5 21 L 18 21 L 18 93.964844 L 5 93.964844 Z M 5 21"/></clipPath><clipPath id="d"><path d="M 5 21 L 108 21 L 108 93.964844 L 5 93.964844 Z M 5 21"/></clipPath><clipPath id="e"><path d="M 94 21 L 108 21 L 108 93.964844 L 94 93.964844 Z M 94 21"/></clipPath><clipPath id="f"><path d="M 5 26 L 108 26 L 108 93.964844 L 5 93.964844 Z M 5 26"/></clipPath></defs><g clip-path="url(#a)"><path fill="#F2F2F2" d="M 100.664062 93.695312 L 11.503906 93.695312 C 8.019531 93.695312 5.105469 90.941406 5.105469 87.386719 L 5.105469 25.777344 C 5.105469 25.359375 5.148438 24.941406 5.230469 24.53125 C 5.3125 24.121094 5.433594 23.722656 5.597656 23.335938 C 5.757812 22.949219 5.953125 22.578125 6.1875 22.230469 C 6.421875 21.882812 6.6875 21.5625 6.984375 21.265625 C 7.28125 20.96875 7.605469 20.703125 7.953125 20.46875 C 8.300781 20.238281 8.671875 20.039062 9.058594 19.878906 C 9.445312 19.71875 9.84375 19.597656 10.257812 19.515625 C 10.667969 19.433594 11.085938 19.394531 11.503906 19.394531 L 100.664062 19.394531 C 104.148438 19.394531 107.0625 22.257812 107.0625 25.785156 L 107.0625 87.308594 C 106.984375 90.949219 104.148438 93.699219 100.664062 93.699219 Z M 100.664062 93.695312"/></g><g clip-path="url(#b)"><path fill="#221F1F" d="M 17.851562 93.695312 L 55.996094 65.8125 L 56.238281 64.195312 L 16.894531 35.96875 L 16.816406 92.320312 Z M 17.851562 93.695312" fill-opacity=".098"/></g><g clip-path="url(#c)"><path fill="#D44C3D" d="M 11.503906 93.695312 C 7.972656 93.695312 5.105469 90.941406 5.105469 87.386719 L 5.105469 25.695312 C 5.105469 22.136719 7.972656 21.492188 11.503906 21.492188 C 15.035156 21.492188 17.902344 22.226562 17.902344 25.695312 L 17.902344 93.691406 Z M 11.503906 93.695312"/></g><g clip-path="url(#d)"><path fill="#D44C3D" d="M 11.503906 22.460938 C 16.039062 22.460938 16.929688 23.835938 16.929688 25.695312 L 16.929688 92.800781 L 11.503906 92.800781 C 8.507812 92.800781 6.078125 90.375 6.078125 87.378906 L 6.078125 25.695312 C 5.996094 23.785156 6.96875 22.460938 11.503906 22.460938 Z M 11.503906 21.570312 C 7.972656 21.574219 5.105469 22.296875 5.105469 25.695312 L 5.105469 87.300781 C 5.097656 87.722656 5.136719 88.140625 5.214844 88.554688 C 5.292969 88.96875 5.410156 89.371094 5.566406 89.761719 C 5.726562 90.152344 5.921875 90.523438 6.15625 90.871094 C 6.390625 91.222656 6.65625 91.546875 6.953125 91.847656 C 7.25 92.144531 7.574219 92.410156 7.925781 92.640625 C 8.28125 92.875 8.652344 93.070312 9.042969 93.230469 C 9.433594 93.386719 9.835938 93.507812 10.25 93.582031 C 10.664062 93.660156 11.082031 93.699219 11.503906 93.691406 L 17.902344 93.691406 L 17.902344 25.695312 C 17.851562 22.21875 15.066406 21.574219 11.503906 21.574219 Z M 100.664062 22.460938 C 104.792969 22.460938 106.089844 23.269531 106.089844 25.535156 L 106.089844 87.464844 C 106.089844 90.457031 103.664062 92.886719 100.664062 92.886719 L 95.238281 92.886719 L 95.238281 25.535156 C 95.15625 23.191406 96.535156 22.460938 100.664062 22.460938 Z M 100.664062 21.570312 C 97.101562 21.570312 94.265625 22.054688 94.265625 25.53125 L 94.265625 93.769531 L 100.664062 93.769531 C 104.226562 93.769531 107.0625 90.90625 107.0625 87.378906 L 107.0625 25.453125 C 106.984375 21.972656 104.148438 21.570312 100.664062 21.570312 Z M 100.664062 21.570312"/></g><g clip-path="url(#e)"><path fill="#D44C3D" d="M 100.664062 93.695312 L 94.265625 93.695312 L 94.265625 25.535156 C 94.265625 21.976562 97.132812 21.574219 100.664062 21.574219 C 104.195312 21.574219 107.0625 22.058594 107.0625 25.535156 L 107.0625 87.464844 C 107.054688 87.878906 107.003906 88.289062 106.917969 88.691406 C 106.828125 89.09375 106.699219 89.488281 106.535156 89.867188 C 106.371094 90.246094 106.171875 90.605469 105.9375 90.945312 C 105.699219 91.285156 105.433594 91.597656 105.140625 91.886719 C 104.84375 92.175781 104.519531 92.433594 104.175781 92.660156 C 103.828125 92.886719 103.460938 93.074219 103.078125 93.230469 C 102.695312 93.386719 102.300781 93.503906 101.894531 93.582031 C 101.488281 93.660156 101.078125 93.695312 100.664062 93.695312 Z M 100.664062 93.695312"/></g><g clip-path="url(#f)"><path fill="#221F1F" d="M 73.371094 93.695312 L 5.671875 28.398438 L 9.234375 29.855469 L 56.398438 63.742188 L 107.058594 26.585938 L 107.058594 87.464844 C 107.058594 87.882812 107.015625 88.296875 106.929688 88.703125 C 106.847656 89.113281 106.726562 89.511719 106.5625 89.894531 C 106.402344 90.28125 106.203125 90.644531 105.96875 90.992188 C 105.734375 91.335938 105.46875 91.65625 105.171875 91.949219 C 104.875 92.242188 104.550781 92.503906 104.203125 92.730469 C 103.855469 92.960938 103.484375 93.15625 103.097656 93.3125 C 102.710938 93.46875 102.3125 93.585938 101.902344 93.664062 C 101.492188 93.742188 101.078125 93.777344 100.660156 93.773438 Z M 73.371094 93.695312" fill-opacity=".078"/></g><path fill="#D44C3D" d="M 55.964844 65.894531 L 7.859375 31.035156 C 4.992188 28.933594 4.214844 24.894531 6.320312 22.058594 C 8.425781 19.226562 12.46875 18.582031 15.390625 20.683594 L 56.042969 50.207031 L 96.9375 20.285156 C 99.804688 18.183594 103.742188 18.828125 105.84375 21.738281 C 107.949219 24.601562 107.300781 28.535156 104.390625 30.632812 Z M 55.964844 65.894531"/><path fill="#D44C3D" d="M 100.664062 20.035156 C 102.363281 20.035156 104.0625 20.84375 105.117188 22.300781 C 106.820312 24.726562 106.328125 28.125 103.90625 29.941406 L 55.964844 64.761719 L 8.425781 30.308594 C 5.996094 28.527344 5.347656 25.046875 7.015625 22.671875 C 7.988281 21.214844 9.695312 20.324219 11.550781 20.324219 C 12.761719 20.324219 13.902344 20.648438 14.789062 21.375 L 55.355469 50.816406 L 55.925781 51.140625 L 56.492188 50.816406 L 97.347656 20.921875 C 98.398438 20.355469 99.449219 20.03125 100.667969 20.03125 Z M 100.664062 19.066406 C 99.367188 19.066406 97.988281 19.390625 96.933594 20.273438 L 56.042969 50.203125 L 15.308594 20.601562 C 14.257812 19.792969 12.882812 19.394531 11.503906 19.394531 C 9.480469 19.472656 7.457031 20.363281 6.238281 22.066406 C 4.214844 24.929688 5.027344 28.863281 7.859375 30.960938 L 55.964844 65.894531 L 104.390625 30.628906 C 104.726562 30.382812 105.035156 30.105469 105.320312 29.796875 C 105.601562 29.492188 105.855469 29.160156 106.074219 28.804688 C 106.292969 28.449219 106.472656 28.074219 106.621094 27.683594 C 106.765625 27.292969 106.871094 26.890625 106.9375 26.476562 C 107.007812 26.066406 107.035156 25.652344 107.019531 25.234375 C 107.007812 24.816406 106.953125 24.402344 106.859375 23.996094 C 106.765625 23.589844 106.632812 23.195312 106.460938 22.816406 C 106.292969 22.433594 106.085938 22.074219 105.84375 21.730469 C 104.546875 20.03125 102.605469 19.058594 100.664062 19.058594 Z M 100.664062 19.066406"/></svg>